<mxfile host="app.diagrams.net" modified="2022-12-24T23:15:37.680Z" agent="5.0 (Macintosh; Intel Mac OS X 10_15_7) AppleWebKit/605.1.15 (KHTML, like Gecko) Version/16.2 Safari/605.1.15" version="20.7.4" etag="CNqir-qNi1EiXPKWyLN5" type="github">
  <diagram id="X1RLhjHaSF4pR-Ss4Pii" name="Page-1">
    <mxGraphModel dx="2074" dy="831" grid="1" gridSize="10" guides="1" tooltips="1" connect="1" arrows="1" fold="1" page="1" pageScale="1" pageWidth="827" pageHeight="1169" math="0" shadow="0">
      <root>
        <mxCell id="0" />
        <mxCell id="1" parent="0" />
        <mxCell id="L7-nbopYdmOoQLR7_Uui-1" value="" style="rounded=0;whiteSpace=wrap;html=1;" vertex="1" parent="1">
          <mxGeometry x="50" y="100" width="240" height="430" as="geometry" />
        </mxCell>
        <mxCell id="L7-nbopYdmOoQLR7_Uui-2" value="REFUND PROTOCOL" style="text;html=1;align=center;verticalAlign=middle;resizable=0;points=[];autosize=1;strokeColor=none;fillColor=none;" vertex="1" parent="1">
          <mxGeometry x="50" y="70" width="140" height="30" as="geometry" />
        </mxCell>
        <mxCell id="L7-nbopYdmOoQLR7_Uui-3" value="Project A" style="rounded=0;whiteSpace=wrap;html=1;" vertex="1" parent="1">
          <mxGeometry x="110" y="120" width="120" height="60" as="geometry" />
        </mxCell>
        <mxCell id="L7-nbopYdmOoQLR7_Uui-4" value="Project D" style="rounded=0;whiteSpace=wrap;html=1;" vertex="1" parent="1">
          <mxGeometry x="110" y="380" width="120" height="60" as="geometry" />
        </mxCell>
        <mxCell id="L7-nbopYdmOoQLR7_Uui-5" value="Project C" style="rounded=0;whiteSpace=wrap;html=1;" vertex="1" parent="1">
          <mxGeometry x="110" y="290" width="120" height="60" as="geometry" />
        </mxCell>
        <mxCell id="L7-nbopYdmOoQLR7_Uui-6" value="Project B" style="rounded=0;whiteSpace=wrap;html=1;" vertex="1" parent="1">
          <mxGeometry x="110" y="210" width="120" height="60" as="geometry" />
        </mxCell>
        <mxCell id="L7-nbopYdmOoQLR7_Uui-7" value="" style="endArrow=none;dashed=1;html=1;dashPattern=1 3;strokeWidth=2;rounded=0;" edge="1" parent="1">
          <mxGeometry width="50" height="50" relative="1" as="geometry">
            <mxPoint x="170" y="500" as="sourcePoint" />
            <mxPoint x="170" y="470" as="targetPoint" />
            <Array as="points">
              <mxPoint x="170" y="470" />
            </Array>
          </mxGeometry>
        </mxCell>
        <mxCell id="L7-nbopYdmOoQLR7_Uui-8" value="STAKING &amp;amp; FARMS" style="rounded=0;whiteSpace=wrap;html=1;" vertex="1" parent="1">
          <mxGeometry x="520" y="140" width="190" height="130" as="geometry" />
        </mxCell>
        <mxCell id="L7-nbopYdmOoQLR7_Uui-9" value="SWAP" style="rounded=0;whiteSpace=wrap;html=1;" vertex="1" parent="1">
          <mxGeometry x="530" y="360" width="190" height="120" as="geometry" />
        </mxCell>
        <mxCell id="L7-nbopYdmOoQLR7_Uui-10" value="Liquidity Incentive" style="rounded=0;whiteSpace=wrap;html=1;" vertex="1" parent="1">
          <mxGeometry x="532" y="610" width="186" height="110" as="geometry" />
        </mxCell>
        <mxCell id="L7-nbopYdmOoQLR7_Uui-11" value="" style="endArrow=classic;html=1;rounded=0;exitX=0.5;exitY=0;exitDx=0;exitDy=0;entryX=0.5;entryY=1;entryDx=0;entryDy=0;jumpStyle=gap;" edge="1" parent="1" source="L7-nbopYdmOoQLR7_Uui-10" target="L7-nbopYdmOoQLR7_Uui-9">
          <mxGeometry width="50" height="50" relative="1" as="geometry">
            <mxPoint x="370" y="450" as="sourcePoint" />
            <mxPoint x="420" y="400" as="targetPoint" />
          </mxGeometry>
        </mxCell>
        <mxCell id="L7-nbopYdmOoQLR7_Uui-13" value="&lt;span style=&quot;font-size: 11px; background-color: rgb(255, 255, 255);&quot;&gt;Excludes users from taxes&lt;/span&gt;" style="text;html=1;strokeColor=none;fillColor=none;align=center;verticalAlign=middle;whiteSpace=wrap;rounded=0;" vertex="1" parent="1">
          <mxGeometry x="630" y="510" width="150" height="80" as="geometry" />
        </mxCell>
        <mxCell id="L7-nbopYdmOoQLR7_Uui-14" value="" style="endArrow=classic;html=1;rounded=0;jumpStyle=gap;exitX=0;exitY=0.5;exitDx=0;exitDy=0;" edge="1" parent="1" source="L7-nbopYdmOoQLR7_Uui-9">
          <mxGeometry width="50" height="50" relative="1" as="geometry">
            <mxPoint x="370" y="520" as="sourcePoint" />
            <mxPoint x="290" y="420" as="targetPoint" />
          </mxGeometry>
        </mxCell>
        <mxCell id="L7-nbopYdmOoQLR7_Uui-15" value="Offers Collected Fees to the Refund Protocol Pool" style="text;html=1;strokeColor=none;fillColor=none;align=center;verticalAlign=middle;whiteSpace=wrap;rounded=0;" vertex="1" parent="1">
          <mxGeometry x="360" y="450" width="120" height="30" as="geometry" />
        </mxCell>
        <mxCell id="L7-nbopYdmOoQLR7_Uui-16" value="" style="endArrow=classic;html=1;rounded=0;jumpStyle=gap;exitX=0;exitY=0.25;exitDx=0;exitDy=0;entryX=0;entryY=0.75;entryDx=0;entryDy=0;" edge="1" parent="1" source="L7-nbopYdmOoQLR7_Uui-8" target="L7-nbopYdmOoQLR7_Uui-8">
          <mxGeometry width="50" height="50" relative="1" as="geometry">
            <mxPoint x="370" y="550" as="sourcePoint" />
            <mxPoint x="420" y="500" as="targetPoint" />
            <Array as="points">
              <mxPoint x="470" y="173" />
              <mxPoint x="470" y="238" />
            </Array>
          </mxGeometry>
        </mxCell>
        <mxCell id="L7-nbopYdmOoQLR7_Uui-17" value="Controls the supply of RJVF" style="text;html=1;strokeColor=none;fillColor=none;align=center;verticalAlign=middle;whiteSpace=wrap;rounded=0;" vertex="1" parent="1">
          <mxGeometry x="400" y="190" width="60" height="30" as="geometry" />
        </mxCell>
        <mxCell id="L7-nbopYdmOoQLR7_Uui-18" value="" style="endArrow=classic;html=1;rounded=0;jumpStyle=gap;entryX=1.008;entryY=0.486;entryDx=0;entryDy=0;entryPerimeter=0;" edge="1" parent="1" target="L7-nbopYdmOoQLR7_Uui-1">
          <mxGeometry width="50" height="50" relative="1" as="geometry">
            <mxPoint x="410" y="310" as="sourcePoint" />
            <mxPoint x="300" y="310" as="targetPoint" />
            <Array as="points">
              <mxPoint x="450" y="309" />
              <mxPoint x="410" y="310" />
            </Array>
          </mxGeometry>
        </mxCell>
        <mxCell id="L7-nbopYdmOoQLR7_Uui-19" value="Receives Subscription Payments to include users in its insurance pool" style="text;html=1;strokeColor=none;fillColor=none;align=center;verticalAlign=middle;whiteSpace=wrap;rounded=0;" vertex="1" parent="1">
          <mxGeometry x="319" y="330" width="130" height="30" as="geometry" />
        </mxCell>
        <mxCell id="L7-nbopYdmOoQLR7_Uui-20" value="" style="endArrow=classic;html=1;rounded=0;jumpStyle=gap;exitX=0.5;exitY=1;exitDx=0;exitDy=0;" edge="1" parent="1" source="L7-nbopYdmOoQLR7_Uui-1">
          <mxGeometry width="50" height="50" relative="1" as="geometry">
            <mxPoint x="370" y="520" as="sourcePoint" />
            <mxPoint x="170" y="630" as="targetPoint" />
          </mxGeometry>
        </mxCell>
        <mxCell id="L7-nbopYdmOoQLR7_Uui-21" value="Can be used by protocols to control access to specific functionality" style="text;html=1;strokeColor=none;fillColor=none;align=center;verticalAlign=middle;whiteSpace=wrap;rounded=0;" vertex="1" parent="1">
          <mxGeometry x="180" y="547.5" width="110" height="75" as="geometry" />
        </mxCell>
        <mxCell id="L7-nbopYdmOoQLR7_Uui-22" value="Pays Premium to users if one of the partnered projects encounters a financial issue" style="text;html=1;strokeColor=none;fillColor=none;align=center;verticalAlign=middle;whiteSpace=wrap;rounded=0;" vertex="1" parent="1">
          <mxGeometry x="30" y="570" width="130" height="30" as="geometry" />
        </mxCell>
        <mxCell id="L7-nbopYdmOoQLR7_Uui-23" value="The REFUND PROTOCOL is governed by all its members so if one of the projects rugs the others will decide how to proceed - this is also a valid &quot;financial issue&quot;" style="text;html=1;strokeColor=none;fillColor=none;align=center;verticalAlign=middle;whiteSpace=wrap;rounded=0;" vertex="1" parent="1">
          <mxGeometry x="284" y="30" width="260" height="30" as="geometry" />
        </mxCell>
        <mxCell id="L7-nbopYdmOoQLR7_Uui-24" value="" style="ellipse;shape=cloud;whiteSpace=wrap;html=1;" vertex="1" parent="1">
          <mxGeometry x="145" y="640" width="50" height="35" as="geometry" />
        </mxCell>
        <mxCell id="L7-nbopYdmOoQLR7_Uui-25" value="" style="ellipse;shape=cloud;whiteSpace=wrap;html=1;" vertex="1" parent="1">
          <mxGeometry x="460" y="290" width="50" height="35" as="geometry" />
        </mxCell>
        <mxCell id="L7-nbopYdmOoQLR7_Uui-26" value="" style="ellipse;shape=cloud;whiteSpace=wrap;html=1;" vertex="1" parent="1">
          <mxGeometry x="598" y="810" width="50" height="35" as="geometry" />
        </mxCell>
        <mxCell id="L7-nbopYdmOoQLR7_Uui-27" value="" style="endArrow=classic;html=1;rounded=0;jumpStyle=gap;entryX=0.5;entryY=1;entryDx=0;entryDy=0;" edge="1" parent="1" target="L7-nbopYdmOoQLR7_Uui-10">
          <mxGeometry width="50" height="50" relative="1" as="geometry">
            <mxPoint x="625" y="800" as="sourcePoint" />
            <mxPoint x="380" y="470" as="targetPoint" />
          </mxGeometry>
        </mxCell>
        <mxCell id="L7-nbopYdmOoQLR7_Uui-29" value="Users can choose to pay a fee to get excluded from sell/buy tax" style="text;html=1;strokeColor=none;fillColor=none;align=center;verticalAlign=middle;whiteSpace=wrap;rounded=0;" vertex="1" parent="1">
          <mxGeometry x="630" y="740" width="100" height="60" as="geometry" />
        </mxCell>
        <mxCell id="L7-nbopYdmOoQLR7_Uui-30" value="TREASURY" style="rounded=0;whiteSpace=wrap;html=1;" vertex="1" parent="1">
          <mxGeometry x="340" y="785" width="120" height="60" as="geometry" />
        </mxCell>
        <mxCell id="L7-nbopYdmOoQLR7_Uui-31" value="" style="endArrow=classic;html=1;rounded=0;jumpStyle=gap;exitX=0;exitY=0.5;exitDx=0;exitDy=0;entryX=0.5;entryY=0;entryDx=0;entryDy=0;" edge="1" parent="1" source="L7-nbopYdmOoQLR7_Uui-10" target="L7-nbopYdmOoQLR7_Uui-30">
          <mxGeometry width="50" height="50" relative="1" as="geometry">
            <mxPoint x="330" y="960" as="sourcePoint" />
            <mxPoint x="380" y="910" as="targetPoint" />
            <Array as="points">
              <mxPoint x="400" y="665" />
            </Array>
          </mxGeometry>
        </mxCell>
        <mxCell id="L7-nbopYdmOoQLR7_Uui-32" value="Deposits fees into treasury" style="text;html=1;strokeColor=none;fillColor=none;align=center;verticalAlign=middle;whiteSpace=wrap;rounded=0;" vertex="1" parent="1">
          <mxGeometry x="414" y="622.5" width="60" height="30" as="geometry" />
        </mxCell>
        <mxCell id="L7-nbopYdmOoQLR7_Uui-33" value="Used to provide Liquidity, cover Marketing, Team and Dev costs and serves as a backup for the project" style="text;html=1;strokeColor=none;fillColor=none;align=center;verticalAlign=middle;whiteSpace=wrap;rounded=0;" vertex="1" parent="1">
          <mxGeometry x="330" y="850" width="140" height="70" as="geometry" />
        </mxCell>
        <mxCell id="L7-nbopYdmOoQLR7_Uui-34" value="RUG RECOVERY" style="rounded=0;whiteSpace=wrap;html=1;" vertex="1" parent="1">
          <mxGeometry x="250" y="120" width="90" height="100" as="geometry" />
        </mxCell>
        <mxCell id="L7-nbopYdmOoQLR7_Uui-35" value="" style="endArrow=none;html=1;rounded=0;jumpStyle=gap;entryX=1;entryY=0.25;entryDx=0;entryDy=0;" edge="1" parent="1" target="L7-nbopYdmOoQLR7_Uui-34">
          <mxGeometry width="50" height="50" relative="1" as="geometry">
            <mxPoint x="420" y="120" as="sourcePoint" />
            <mxPoint x="380" y="400" as="targetPoint" />
            <Array as="points">
              <mxPoint x="420" y="90" />
              <mxPoint x="420" y="145" />
            </Array>
          </mxGeometry>
        </mxCell>
      </root>
    </mxGraphModel>
  </diagram>
</mxfile>
